<svg width="167" height="38" viewBox="0 0 167 38" fill="none" xmlns="http://www.w3.org/2000/svg">
<g clip-path="url(#clip0_213_4081)">
<path d="M46.73 6.91C51.81 6.91 55.64 9.77 56.85 14.39H51.13C50.25 12.57 48.64 11.65 46.66 11.65C43.47 11.65 41.28 14.02 41.28 17.79C41.28 21.56 43.47 23.93 46.66 23.93C48.64 23.93 50.25 23.02 51.13 21.19H56.85C55.63 25.81 51.8 28.64 46.73 28.64C40.44 28.64 36 24.17 36 17.79C36 11.41 40.43 6.91 46.73 6.91Z" fill="#5A6BB4"/>
<path d="M66.49 11.29C69.01 11.29 70.81 12.45 71.72 13.93V11.53H76.92V28.49H71.72V26.09C70.78 27.58 68.98 28.73 66.46 28.73C62.33 28.73 59.01 25.33 59.01 19.97C59.01 14.61 62.32 11.29 66.49 11.29ZM68.01 15.82C66.06 15.82 64.3 17.28 64.3 19.98C64.3 22.68 66.06 24.21 68.01 24.21C69.99 24.21 71.72 22.72 71.72 20.01C71.72 17.31 69.98 15.82 68.01 15.82Z" fill="#5A6BB4"/>
<path d="M81.5 15.85H79.43V11.53H81.5V7.39999H86.7V11.53H90.11V15.85H86.7V22.66C86.7 23.66 87.13 24.09 88.28 24.09H90.13V28.5H87.48C83.95 28.5 81.49 27.01 81.49 22.6V15.85H81.5Z" fill="#5A6BB4"/>
<path d="M99.47 11.29C101.99 11.29 103.79 12.45 104.7 13.93V11.53H109.9V28.49H104.7V26.09C103.76 27.58 101.96 28.73 99.44 28.73C95.31 28.73 91.99 25.33 91.99 19.97C91.99 14.61 95.31 11.29 99.47 11.29ZM100.99 15.82C99.04 15.82 97.28 17.28 97.28 19.98C97.28 22.68 99.04 24.21 100.99 24.21C102.97 24.21 104.7 22.72 104.7 20.01C104.7 17.31 102.97 15.82 100.99 15.82Z" fill="#5A6BB4"/>
<path d="M113.67 6H118.87V28.5H113.67V6Z" fill="#5A6BB4"/>
<path d="M134.34 11.53H139.96L129.32 36.55H123.73L127.62 27.92L120.72 11.53H126.53L130.45 22.14L134.34 11.53Z" fill="#5A6BB4"/>
<path d="M148.14 28.74C143.61 28.74 140.57 26.22 140.33 22.93H145.47C145.59 24.12 146.66 24.91 148.08 24.91C149.42 24.91 150.12 24.3 150.12 23.54C150.12 20.8 140.88 22.78 140.88 16.55C140.88 13.66 143.34 11.29 147.78 11.29C152.16 11.29 154.59 13.72 154.92 17.07H150.12C149.97 15.92 149.09 15.16 147.63 15.16C146.41 15.16 145.75 15.65 145.75 16.47C145.75 19.18 154.93 17.26 155.02 23.58C155.01 26.52 152.4 28.74 148.14 28.74Z" fill="#5A6BB4"/>
<path d="M158.41 15.85H156.34V11.53H158.41V7.39999H163.61V11.53H167.02V15.85H163.61V22.66C163.61 23.66 164.04 24.09 165.19 24.09H167.04V28.5H164.39C160.86 28.5 158.4 27.01 158.4 22.6V15.85H158.41Z" fill="#5A6BB4"/>
<path d="M16.52 33.93C12.33 33.93 8.39999 32.3 5.45 29.35C2.49999 26.4 0.869995 22.46 0.869995 18.28C0.869995 14.09 2.49999 10.16 5.45 7.21C11.56 1.1 21.49 1.1 27.6 7.21C30.55 10.16 32.18 14.1 32.18 18.28C32.18 22.47 30.55 26.4 27.6 29.35C24.65 32.3 20.7 33.93 16.52 33.93ZM16.52 3.24C12.67 3.24 8.81 4.71 5.88 7.64C3.04 10.48 1.48 14.26 1.48 18.28C1.48 22.31 3.04 26.09 5.88 28.92C8.72 31.76 12.5 33.32 16.52 33.32C20.54 33.32 24.33 31.76 27.16 28.92C30 26.08 31.56 22.3 31.56 18.28C31.56 14.26 30 10.47 27.16 7.64C24.23 4.7 20.37 3.24 16.52 3.24Z" fill="#A9A9A9"/>
<path d="M16.57 26.83C14.35 26.83 12.12 25.98 10.43 24.29C7.03998 20.9 7.03998 15.39 10.43 12.01C13.82 8.62 19.33 8.62 22.71 12.01C26.1 15.4 26.1 20.91 22.71 24.29C21.01 25.98 18.79 26.83 16.57 26.83ZM16.57 10.08C14.5 10.08 12.43 10.87 10.86 12.44C7.70998 15.59 7.70998 20.71 10.86 23.86C14.01 27.01 19.13 27.01 22.28 23.86C25.43 20.71 25.43 15.59 22.28 12.44C20.7 10.86 18.63 10.08 16.57 10.08Z" fill="#A9A9A9"/>
<path d="M16.52 18.41C16.5 18.41 16.47 18.4 16.45 18.39L8.70998 13.71C8.64998 13.67 8.62998 13.59 8.66998 13.53C8.70998 13.47 8.78998 13.45 8.84998 13.49L16.59 18.17C16.65 18.21 16.67 18.29 16.63 18.35C16.6 18.39 16.56 18.41 16.52 18.41Z" fill="#815CAE"/>
<path d="M9.48 15.92C10.5017 15.92 11.33 15.0917 11.33 14.07C11.33 13.0483 10.5017 12.22 9.48 12.22C8.45828 12.22 7.63 13.0483 7.63 14.07C7.63 15.0917 8.45828 15.92 9.48 15.92Z" fill="#815CAE"/>
<path d="M1.4 16.94C2.10692 16.94 2.68 16.3669 2.68 15.66C2.68 14.9531 2.10692 14.38 1.4 14.38C0.693071 14.38 0.119995 14.9531 0.119995 15.66C0.119995 16.3669 0.693071 16.94 1.4 16.94Z" fill="#815CAE"/>
<path d="M4.81 9.38001C5.51692 9.38001 6.09 8.80693 6.09 8.10001C6.09 7.39308 5.51692 6.82001 4.81 6.82001C4.10307 6.82001 3.53 7.39308 3.53 8.10001C3.53 8.80693 4.10307 9.38001 4.81 9.38001Z" fill="#815CAE"/>
<path d="M8.44 6.28C9.14693 6.28 9.72 5.70693 9.72 5C9.72 4.29308 9.14693 3.72 8.44 3.72C7.73308 3.72 7.16 4.29308 7.16 5C7.16 5.70693 7.73308 6.28 8.44 6.28Z" fill="#815CAE"/>
<path d="M2.67999 12.99C3.38692 12.99 3.95999 12.4169 3.95999 11.71C3.95999 11.0031 3.38692 10.43 2.67999 10.43C1.97307 10.43 1.39999 11.0031 1.39999 11.71C1.39999 12.4169 1.97307 12.99 2.67999 12.99Z" fill="#815CAE"/>
<path d="M1.17 15.93C1.1 15.93 1.04 15.88 1.02 15.81C1 15.73 1.05 15.65 1.14 15.63L9.23 13.92C9.31 13.9 9.39 13.96 9.41 14.04C9.43 14.12 9.37 14.2 9.29 14.22L1.2 15.93C1.19 15.93 1.18 15.93 1.17 15.93Z" fill="#815CAE"/>
<path d="M9.25999 14.22C9.20999 14.22 9.16999 14.2 9.13999 14.16L4.68999 8.19001C4.63999 8.12001 4.65999 8.03001 4.71999 7.98001C4.78999 7.93001 4.87999 7.94001 4.92999 8.01001L9.37999 13.98C9.42999 14.05 9.41999 14.14 9.34999 14.19C9.31999 14.21 9.28999 14.22 9.25999 14.22Z" fill="#815CAE"/>
<path d="M9.25999 14.22C9.23999 14.22 9.22999 14.22 9.20999 14.21L2.62999 11.85C2.54999 11.82 2.50999 11.74 2.53999 11.66C2.56999 11.58 2.64999 11.54 2.72999 11.57L9.30999 13.93C9.38999 13.96 9.42999 14.05 9.39999 14.12C9.37999 14.18 9.31999 14.22 9.25999 14.22Z" fill="#815CAE"/>
<path d="M9.26 14.22C9.18 14.22 9.12 14.16 9.11 14.08L8.29 5.23001C8.28 5.15001 8.34 5.07001 8.43 5.07001C8.51 5.05001 8.59 5.12001 8.59 5.20001L9.41 14.05C9.42 14.13 9.36 14.21 9.27 14.22H9.26Z" fill="#815CAE"/>
<path d="M20.97 27.44C21.9917 27.44 22.82 26.6117 22.82 25.59C22.82 24.5683 21.9917 23.74 20.97 23.74C19.9483 23.74 19.12 24.5683 19.12 25.59C19.12 26.6117 19.9483 27.44 20.97 27.44Z" fill="#FF5C2E"/>
<path d="M16.44 33.96C16.42 33.96 16.39 33.95 16.37 33.94C16.3 33.9 16.27 33.81 16.31 33.73L20.65 25.51C20.69 25.44 20.78 25.41 20.86 25.45C20.93 25.49 20.96 25.58 20.92 25.65L16.58 33.87C16.55 33.93 16.49 33.96 16.44 33.96Z" fill="#FF5C2E"/>
<path d="M20.97 26.13C20.89 26.13 20.82 26.06 20.82 25.98C20.82 25.9 20.89 25.83 20.97 25.83L29.91 25.76C29.99 25.76 30.06 25.83 30.06 25.91C30.06 25.99 29.99 26.06 29.91 26.06L20.97 26.13Z" fill="#FF5C2E"/>
<path d="M20.78 25.74C20.73 25.74 20.68 25.71 20.65 25.66L16.44 18.4C16.4 18.33 16.42 18.23 16.5 18.19C16.57 18.15 16.67 18.17 16.71 18.25L20.92 25.51C20.96 25.58 20.94 25.68 20.86 25.72C20.83 25.73 20.8 25.74 20.78 25.74Z" fill="#FF5C2E"/>
<path d="M21.81 13.14C21.8 13.14 21.78 13.14 21.77 13.13C21.72 13.11 21.68 13.07 21.66 13.02L19.62 3.30999C19.6 3.22999 19.66 3.14999 19.74 3.12999C19.82 3.11999 19.9 3.16999 19.92 3.24999L21.9 12.69L27.31 7.27999C27.37 7.21999 27.47 7.21999 27.52 7.27999C27.57 7.33999 27.58 7.43999 27.52 7.48999L21.91 13.1C21.89 13.13 21.85 13.14 21.81 13.14Z" fill="#F8D838"/>
<path d="M21.81 13.14C21.73 13.14 21.66 13.07 21.66 12.99C21.66 12.91 21.72 12.84 21.81 12.83L31.2 12.63C31.28 12.62 31.35 12.69 31.36 12.78C31.36 12.86 31.3 12.93 31.21 12.94L21.81 13.14Z" fill="#F8D838"/>
<path d="M16.57 18.46C16.54 18.46 16.5 18.45 16.48 18.42C16.43 18.37 16.43 18.29 16.48 18.24C16.49 18.23 16.5 18.22 16.52 18.21C16.78 18 19.76 14.93 21.72 12.9C21.77 12.85 21.85 12.85 21.9 12.9C21.95 12.95 21.95 13.03 21.9 13.08C16.72 18.46 16.64 18.46 16.57 18.46Z" fill="#F8D838"/>
<path d="M22.24 14.21C23.2617 14.21 24.09 13.3817 24.09 12.36C24.09 11.3383 23.2617 10.51 22.24 10.51C21.2183 10.51 20.39 11.3383 20.39 12.36C20.39 13.3817 21.2183 14.21 22.24 14.21Z" fill="#F8D838"/>
<path d="M10.64 24.23C10.6 24.23 10.56 24.22 10.53 24.18C10.47 24.12 10.47 24.02 10.53 23.97L16.41 18.17C16.47 18.11 16.57 18.11 16.63 18.17C16.69 18.23 16.69 18.33 16.63 18.38L10.75 24.18C10.72 24.21 10.68 24.23 10.64 24.23Z" fill="#5BB5C9"/>
<path d="M8.43999 32.02C8.42999 32.02 8.40999 32.02 8.39999 32.01C8.31999 31.99 8.26999 31.9 8.28999 31.82L10.34 24.22C10.36 24.14 10.45 24.09 10.53 24.11C10.61 24.13 10.66 24.22 10.64 24.3L8.58999 31.9C8.56999 31.97 8.50999 32.02 8.43999 32.02Z" fill="#5BB5C9"/>
<path d="M2.92 26.13C2.85 26.13 2.79 26.08 2.77 26.01C2.75 25.93 2.8 25.85 2.88 25.83L10.45 24.12C10.53 24.1 10.61 24.15 10.63 24.24C10.65 24.32 10.6 24.4 10.52 24.42L2.95 26.13C2.95 26.13 2.93 26.13 2.92 26.13Z" fill="#5BB5C9"/>
<path d="M10.5 26.12C11.5217 26.12 12.35 25.2917 12.35 24.27C12.35 23.2483 11.5217 22.42 10.5 22.42C9.47827 22.42 8.64999 23.2483 8.64999 24.27C8.64999 25.2917 9.47827 26.12 10.5 26.12Z" fill="#2BB5D4"/>
<path d="M2.91998 27.26C3.62691 27.26 4.19998 26.6869 4.19998 25.98C4.19998 25.2731 3.62691 24.7 2.91998 24.7C2.21306 24.7 1.63998 25.2731 1.63998 25.98C1.63998 26.6869 2.21306 27.26 2.91998 27.26Z" fill="#2BB5D4"/>
<path d="M8.44 33.15C9.14693 33.15 9.72 32.5769 9.72 31.87C9.72 31.1631 9.14693 30.59 8.44 30.59C7.73308 30.59 7.16 31.1631 7.16 31.87C7.16 32.5769 7.73308 33.15 8.44 33.15Z" fill="#2BB5D4"/>
<path d="M16.67 20.78C18.1335 20.78 19.32 19.5936 19.32 18.13C19.32 16.6665 18.1335 15.48 16.67 15.48C15.2064 15.48 14.02 16.6665 14.02 18.13C14.02 19.5936 15.2064 20.78 16.67 20.78Z" fill="#5A6BB4"/>
<path d="M16.57 34.91C17.2769 34.91 17.85 34.3369 17.85 33.63C17.85 32.9231 17.2769 32.35 16.57 32.35C15.8631 32.35 15.29 32.9231 15.29 33.63C15.29 34.3369 15.8631 34.91 16.57 34.91Z" fill="#FF5C2E"/>
<path d="M29.91 27.19C30.6169 27.19 31.19 26.6169 31.19 25.91C31.19 25.2031 30.6169 24.63 29.91 24.63C29.2031 24.63 28.63 25.2031 28.63 25.91C28.63 26.6169 29.2031 27.19 29.91 27.19Z" fill="#FF5C2E"/>
<path d="M27.41 8.66001C28.1169 8.66001 28.69 8.08693 28.69 7.38001C28.69 6.67308 28.1169 6.10001 27.41 6.10001C26.7031 6.10001 26.13 6.67308 26.13 7.38001C26.13 8.08693 26.7031 8.66001 27.41 8.66001Z" fill="#F8D838"/>
<path d="M19.77 4.56C20.4769 4.56 21.05 3.98692 21.05 3.28C21.05 2.57308 20.4769 2 19.77 2C19.0631 2 18.49 2.57308 18.49 3.28C18.49 3.98692 19.0631 4.56 19.77 4.56Z" fill="#F8D838"/>
<path d="M31.19 14.07C31.8969 14.07 32.47 13.4969 32.47 12.79C32.47 12.0831 31.8969 11.51 31.19 11.51C30.4831 11.51 29.91 12.0831 29.91 12.79C29.91 13.4969 30.4831 14.07 31.19 14.07Z" fill="#F8D838"/>
</g>
<defs>
<clipPath id="clip0_213_4081">
<rect width="167" height="38" fill="white"/>
</clipPath>
</defs>
</svg>
